<svg width="64" height="64" viewBox="0 0 64 64" fill="none" xmlns="http://www.w3.org/2000/svg">
<rect width="64" height="64" fill="#1C1B1E"/>
<path d="M32 48.3333C28.9619 48.3333 26.2933 47.6528 23.9941 46.2917C21.695 44.8917 19.8886 42.9667 18.5748 40.5167C17.3021 38.0667 16.6657 35.2083 16.6657 31.9417C16.6657 28.675 17.3021 25.8167 18.5748 23.3667C19.8886 20.9167 21.695 19.0306 23.9941 17.7083C26.2933 16.3472 28.9619 15.6667 32 15.6667C35.0381 15.6667 37.7067 16.3472 40.0059 17.7083C42.305 19.0694 44.0909 20.975 45.3636 23.425C46.6774 25.8361 47.3343 28.675 47.3343 31.9417C47.3343 35.2083 46.6774 38.0667 45.3636 40.5167C44.0909 42.9667 42.305 44.8917 40.0059 46.2917C37.7067 47.6528 35.0381 48.3333 32 48.3333ZM32 49.2667C35.2023 49.2667 38.0147 48.5472 40.437 47.1083C42.9003 45.6694 44.8299 43.6472 46.2258 41.0417C47.6217 38.4361 48.3196 35.4028 48.3196 31.9417C48.3196 28.4806 47.6217 25.4667 46.2258 22.9C44.8299 20.3333 42.9003 18.3306 40.437 16.8917C38.0147 15.4528 35.2023 14.7333 32 14.7333C28.7977 14.7333 25.9648 15.4528 23.5015 16.8917C21.0792 18.2917 19.1701 20.2944 17.7742 22.9C16.3783 25.4667 15.6804 28.4806 15.6804 31.9417C15.6804 35.4028 16.3783 38.4361 17.7742 41.0417C19.1701 43.6472 21.0792 45.6694 23.5015 47.1083C25.9648 48.5472 28.7977 49.2667 32 49.2667ZM32 44.6583C28.7977 44.6583 26.2111 43.5306 24.2405 41.275C22.3109 38.9806 21.346 35.8694 21.346 31.9417C21.346 28.0139 22.3109 24.9417 24.2405 22.725C26.2111 20.4694 28.7977 19.3417 32 19.3417C35.2023 19.3417 37.7683 20.4694 39.6979 22.725C41.6686 24.9417 42.654 28.0139 42.654 31.9417C42.654 35.8694 41.6686 38.9806 39.6979 41.275C37.7683 43.5306 35.2023 44.6583 32 44.6583ZM32 52.0667C28.0997 52.0667 24.6305 51.2111 21.5924 49.5C18.5953 47.75 16.2346 45.3583 14.5103 42.325C12.827 39.2917 11.9853 35.8306 11.9853 31.9417C11.9853 28.0528 12.827 24.6111 14.5103 21.6167C16.2346 18.5833 18.5953 16.2111 21.5924 14.5C24.6305 12.7889 28.0997 11.9333 32 11.9333C35.9003 11.9333 39.349 12.7889 42.346 14.5C45.3842 16.2111 47.7449 18.5833 49.4282 21.6167C51.1525 24.6111 52.0147 28.0528 52.0147 31.9417C52.0147 35.8306 51.1525 39.2917 49.4282 42.325C47.7449 45.3583 45.3842 47.75 42.346 49.5C39.349 51.2111 35.9003 52.0667 32 52.0667ZM32 45.5917C35.4487 45.5917 38.2405 44.3861 40.3754 41.975C42.5513 39.525 43.6393 36.1806 43.6393 31.9417C43.6393 27.7417 42.5513 24.4361 40.3754 22.025C38.2405 19.6139 35.4487 18.4083 32 18.4083C28.5513 18.4083 25.739 19.6139 23.5631 22.025C21.4282 24.3972 20.3607 27.7028 20.3607 31.9417C20.3607 36.1806 21.4282 39.525 23.5631 41.975C25.739 44.3861 28.5513 45.5917 32 45.5917ZM32 53C36.0645 53 39.6774 52.1056 42.8387 50.3167C46 48.4889 48.4839 46 50.2903 42.85C52.0968 39.6611 53 36.025 53 31.9417C53 27.8583 52.0968 24.2417 50.2903 21.0917C48.4839 17.9417 46 15.4722 42.8387 13.6833C39.6774 11.8944 36.0645 11 32 11C27.9355 11 24.3226 11.8944 21.1613 13.6833C18 15.4722 15.5161 17.9417 13.7097 21.0917C11.9032 24.2417 11 27.8583 11 31.9417C11 36.025 11.9032 39.6611 13.7097 42.85C15.5161 46 18 48.4889 21.1613 50.3167C24.3226 52.1056 27.9355 53 32 53Z" fill="#CABEFF"/>
</svg>
