<svg width="48" height="51" viewBox="0 0 48 51" fill="none" xmlns="http://www.w3.org/2000/svg">
<path d="M23.53 44.86C20.126 44.86 17.136 44.055 14.56 42.445C11.984 40.789 9.95998 38.512 8.48798 35.614C7.06198 32.716 6.34898 29.335 6.34898 25.471C6.34898 21.607 7.06198 18.226 8.48798 15.328C9.95998 12.43 11.984 10.199 14.56 8.63495C17.136 7.02495 20.126 6.21995 23.53 6.21995C26.934 6.21995 29.924 7.02495 32.5 8.63495C35.076 10.245 37.077 12.499 38.503 15.397C39.975 18.249 40.711 21.607 40.711 25.471C40.711 29.335 39.975 32.716 38.503 35.614C37.077 38.512 35.076 40.789 32.5 42.445C29.924 44.055 26.934 44.86 23.53 44.86ZM23.53 45.964C27.118 45.964 30.269 45.113 32.983 43.411C35.743 41.709 37.905 39.317 39.469 36.235C41.033 33.153 41.815 29.565 41.815 25.471C41.815 21.377 41.033 17.812 39.469 14.776C37.905 11.74 35.743 9.37095 32.983 7.66895C30.269 5.96695 27.118 5.11595 23.53 5.11595C19.942 5.11595 16.768 5.96695 14.008 7.66895C11.294 9.32495 9.15498 11.694 7.59098 14.776C6.02698 17.812 5.24498 21.377 5.24498 25.471C5.24498 29.565 6.02698 33.153 7.59098 36.235C9.15498 39.317 11.294 41.709 14.008 43.411C16.768 45.113 19.942 45.964 23.53 45.964ZM23.53 40.513C19.942 40.513 17.044 39.179 14.836 36.511C12.674 33.797 11.593 30.117 11.593 25.471C11.593 20.825 12.674 17.191 14.836 14.569C17.044 11.901 19.942 10.567 23.53 10.567C27.118 10.567 29.993 11.901 32.155 14.569C34.363 17.191 35.467 20.825 35.467 25.471C35.467 30.117 34.363 33.797 32.155 36.511C29.993 39.179 27.118 40.513 23.53 40.513ZM23.53 49.276C19.16 49.276 15.273 48.264 11.869 46.24C8.51098 44.17 5.86598 41.341 3.93398 37.753C2.04798 34.165 1.10498 30.071 1.10498 25.471C1.10498 20.871 2.04798 16.8 3.93398 13.258C5.86598 9.66995 8.51098 6.86395 11.869 4.83995C15.273 2.81595 19.16 1.80395 23.53 1.80395C27.9 1.80395 31.764 2.81595 35.122 4.83995C38.526 6.86395 41.171 9.66995 43.057 13.258C44.989 16.8 45.955 20.871 45.955 25.471C45.955 30.071 44.989 34.165 43.057 37.753C41.171 41.341 38.526 44.17 35.122 46.24C31.764 48.264 27.9 49.276 23.53 49.276ZM23.53 41.617C27.394 41.617 30.522 40.191 32.914 37.339C35.352 34.441 36.571 30.485 36.571 25.471C36.571 20.503 35.352 16.593 32.914 13.741C30.522 10.889 27.394 9.46295 23.53 9.46295C19.666 9.46295 16.515 10.889 14.077 13.741C11.685 16.547 10.489 20.457 10.489 25.471C10.489 30.485 11.685 34.441 14.077 37.339C16.515 40.191 19.666 41.617 23.53 41.617ZM23.53 50.38C28.084 50.38 32.132 49.322 35.674 47.206C39.216 45.044 41.999 42.1 44.023 38.374C46.047 34.602 47.059 30.301 47.059 25.471C47.059 20.641 46.047 16.363 44.023 12.637C41.999 8.91095 39.216 5.98995 35.674 3.87395C32.132 1.75795 28.084 0.699951 23.53 0.699951C18.976 0.699951 14.928 1.75795 11.386 3.87395C7.84398 5.98995 5.06098 8.91095 3.03698 12.637C1.01298 16.363 0.000976562 20.641 0.000976562 25.471C0.000976562 30.301 1.01298 34.602 3.03698 38.374C5.06098 42.1 7.84398 45.044 11.386 47.206C14.928 49.322 18.976 50.38 23.53 50.38Z" fill="#6750A4"/>
</svg>
