<?xml version="1.0" standalone="no"?>
<!DOCTYPE svg PUBLIC "-//W3C//DTD SVG 20010904//EN"
 "http://www.w3.org/TR/2001/REC-SVG-20010904/DTD/svg10.dtd">
<svg version="1.0" xmlns="http://www.w3.org/2000/svg"
 width="512.000000pt" height="512.000000pt" viewBox="0 0 512.000000 512.000000"
 preserveAspectRatio="xMidYMid meet">
<metadata>
Created by potrace 1.14, written by Peter Selinger 2001-2017
</metadata>
<g transform="translate(0.000000,512.000000) scale(0.100000,-0.100000)"
fill="#000000" stroke="none">
<path d="M0 2560 l0 -2560 2560 0 2560 0 0 2560 0 2560 -2560 0 -2560 0 0
-2560z m2771 1790 c408 -42 751 -202 1035 -485 288 -287 449 -626 499 -1051
78 -669 -145 -1286 -604 -1668 -316 -263 -696 -395 -1137 -396 -632 -1 -1146
270 -1478 777 -371 567 -384 1427 -30 2016 214 355 568 629 959 742 92 26 275
62 355 68 102 8 304 6 401 -3z"/>
<path d="M2319 4266 c-550 -71 -994 -377 -1243 -856 -168 -324 -228 -732 -170
-1157 84 -622 503 -1143 1072 -1332 370 -123 822 -120 1187 9 383 136 707 431
894 814 99 202 152 409 172 671 34 441 -79 864 -321 1207 -228 322 -609 558
-1018 629 -152 26 -426 33 -573 15z m538 -255 c401 -83 725 -335 912 -709 182
-364 210 -896 71 -1315 -116 -347 -355 -627 -668 -782 -191 -95 -355 -129
-612 -129 -199 0 -289 12 -444 61 -389 122 -702 442 -839 858 -113 343 -112
792 2 1135 132 393 424 698 791 828 96 34 205 59 306 72 115 15 366 4 481 -19z"/>
<path d="M2380 3950 c-135 -17 -269 -58 -396 -120 -368 -180 -599 -497 -680
-935 -27 -141 -27 -537 -1 -675 51 -270 170 -510 345 -692 222 -230 455 -340
787 -370 257 -23 487 17 700 122 143 70 225 131 333 245 172 182 284 401 344
679 20 90 22 130 22 356 0 282 -11 363 -75 547 -156 446 -502 751 -939 829
-106 19 -340 26 -440 14z m425 -254 c160 -44 278 -109 391 -218 234 -225 337
-507 336 -923 0 -409 -105 -699 -329 -916 -119 -116 -227 -178 -386 -222 -70
-19 -107 -22 -257 -22 -149 0 -187 3 -255 22 -306 84 -524 292 -638 608 -106
297 -109 739 -7 1045 110 328 361 561 680 631 108 24 370 21 465 -5z"/>
<path d="M2410 3634 c-413 -79 -675 -390 -731 -865 -16 -142 -6 -425 19 -544
84 -385 295 -635 617 -727 69 -20 103 -23 245 -23 142 0 176 3 244 23 345 100
568 391 632 824 24 165 15 442 -20 591 -83 356 -303 609 -606 697 -59 18 -107
23 -225 25 -82 2 -161 1 -175 -1z"/>
</g>
</svg>
